<svg viewBox="0 0 2327.5 410.0" xmlns="http://www.w3.org/2000/svg">
<polyline points = "10,200
10,185.0
68.5,182.0
132.0,181.0
195.5,179.0
259.0,176.0
322.5,173.0
386.0,170.0
449.5,167.0
513.0,164.0
576.5,162.0
640.0,160.0
703.5,157.0
767.0,154.0
830.5,151.0
894.0,148.0
957.5,145.0
1021.0,142.0
1084.5,139.0
1148.0,136.0
1211.5,133.0
1275.0,130.0
1338.5,128.0
1402.0,127.0
1465.5,125.0
1529.0,126.0
1592.5,140.0
1656.0,154.0
1719.5,165.0
1783.0,172.0
1846.5,175.0
1910.0,178.0
1973.5,180.0
2037.0,182.0
2100.5,183.0
2164.0,184.0
2227.5,185.0
2227.5,200
10,200"
style="fill:lightyellow;stroke:red;stroke-width:2" />
<text x="10" y="185.0">15 m</text>
<text x="68.5" y="210" style="writing-mode: tb; glyph-orientation-vertical: 0;">
Sector 1
</text>
<text x="68.5" y="182.0">18 m</text>
<text x="132.0" y="181.0">19 m</text>
<text x="195.5" y="179.0">21 m</text>
<text x="259.0" y="176.0">24 m</text>
<text x="322.5" y="173.0">27 m</text>
<text x="386.0" y="170.0">30 m</text>
<text x="449.5" y="167.0">33 m</text>
<text x="513.0" y="164.0">36 m</text>
<text x="576.5" y="162.0">38 m</text>
<text x="640.0" y="210" style="writing-mode: tb; glyph-orientation-vertical: 0;">
Sector 2
</text>
<text x="640.0" y="160.0">40 m</text>
<text x="703.5" y="157.0">43 m</text>
<text x="767.0" y="154.0">46 m</text>
<text x="830.5" y="151.0">49 m</text>
<text x="894.0" y="148.0">52 m</text>
<text x="957.5" y="145.0">55 m</text>
<text x="1021.0" y="142.0">58 m</text>
<text x="1084.5" y="139.0">61 m</text>
<text x="1148.0" y="136.0">64 m</text>
<text x="1211.5" y="133.0">67 m</text>
<text x="1275.0" y="130.0">70 m</text>
<text x="1338.5" y="128.0">72 m</text>
<text x="1402.0" y="210" style="writing-mode: tb; glyph-orientation-vertical: 0;">
Sector 3
</text>
<text x="1402.0" y="127.0">73 m</text>
<text x="1465.5" y="125.0">75 m</text>
<text x="1529.0" y="126.0">74 m</text>
<text x="1592.5" y="140.0">60 m</text>
<text x="1656.0" y="154.0">46 m</text>
<text x="1719.5" y="165.0">35 m</text>
<text x="1783.0" y="172.0">28 m</text>
<text x="1846.5" y="210" style="writing-mode: tb; glyph-orientation-vertical: 0;">
Sector 4
</text>
<text x="1846.5" y="175.0">25 m</text>
<text x="1910.0" y="178.0">22 m</text>
<text x="1973.5" y="180.0">20 m</text>
<text x="2037.0" y="182.0">18 m</text>
<text x="2100.5" y="183.0">17 m</text>
<text x="2164.0" y="184.0">16 m</text>
<text x="2227.5" y="185.0">15 m</text>
<text x="10" y="200.0">0 m</text>
</svg>
