<?xml version="1.0" encoding="utf-8"?><svg width="auto" height="3320" style="overflow:visible " version="1.1" xmlns="http://www.w3.org/2000/svg"><rect x="20" y="20" width="200" height="40" style="fill:white;stroke:black;stroke-width:1" /><text x="30" y="30" font-size="10" style="fill:blue">circuito</text><text x="30" y="40" font-size="8" style="fill:black">nombre: Phillip Island Grand Prix Circuit</text><text x="30" y="50" font-size="8" style="fill:black">n_vueltas: 27</text><text x="30" y="60" font-size="8" style="fill:black">patrocinador: Australian Motorcycle Grand Prix</text><text x="30" y="70" font-size="8" style="fill:black">fecha: 2024-10-20</text><text x="30" y="80" font-size="8" style="fill:black">hora: 14:00</text><rect x="240" y="20" width="200" height="40" style="fill:white;stroke:black;stroke-width:1" /><text x="250" y="30" font-size="10" style="fill:blue">longitud</text><path d="M220 40 C240 40 220 40 240 40" style="fill:transparent;stroke:black" /><text x="250" y="40" font-size="8" style="fill:black">unidad: km</text><rect x="306" y="20" width="137" height="40" style="fill:green;stroke:black;stroke-width:1" /><text x="316" y="30" font-size="8" style="fill:white">4.448</text><rect x="240" y="70" width="200" height="40" style="fill:white;stroke:black;stroke-width:1" /><text x="250" y="80" font-size="10" style="fill:blue">anchura</text><path d="M220 40 C240 40 220 90 240 90" style="fill:transparent;stroke:black" /><text x="250" y="90" font-size="8" style="fill:black">unidad: m</text><rect x="306" y="70" width="137" height="40" style="fill:green;stroke:black;stroke-width:1" /><text x="316" y="80" font-size="8" style="fill:white">12</text><rect x="240" y="120" width="200" height="40" style="fill:white;stroke:black;stroke-width:1" /><text x="250" y="130" font-size="10" style="fill:blue">localizacion</text><path d="M220 40 C240 40 220 140 240 140" style="fill:transparent;stroke:black" /><rect x="460" y="120" width="200" height="40" style="fill:white;stroke:black;stroke-width:1" /><text x="470" y="130" font-size="10" style="fill:blue">localidad_proxima</text><path d="M440 140 C460 140 440 140 460 140" style="fill:transparent;stroke:black" /><text x="470" y="140" font-size="8" style="fill:black">pais: Australia</text><rect x="526" y="120" width="137" height="40" style="fill:green;stroke:black;stroke-width:1" /><text x="536" y="130" font-size="8" style="fill:white">Phillip Island, Victoria</text><rect x="240" y="220" width="200" height="40" style="fill:white;stroke:black;stroke-width:1" /><text x="250" y="230" font-size="10" style="fill:blue">referencias</text><path d="M220 40 C240 40 220 240 240 240" style="fill:transparent;stroke:black" /><rect x="460" y="220" width="200" height="40" style="fill:white;stroke:black;stroke-width:1" /><text x="470" y="230" font-size="10" style="fill:blue">referencia</text><path d="M440 240 C460 240 440 240 460 240" style="fill:transparent;stroke:black" /><rect x="526" y="220" width="137" height="40" style="fill:green;stroke:black;stroke-width:1" /><text x="536" y="230" font-size="8" style="fill:white">Circuito de Phillip Island</text><rect x="460" y="270" width="200" height="40" style="fill:white;stroke:black;stroke-width:1" /><text x="470" y="280" font-size="10" style="fill:blue">referencia</text><path d="M440 240 C460 240 440 290 460 290" style="fill:transparent;stroke:black" /><rect x="526" y="270" width="137" height="40" style="fill:green;stroke:black;stroke-width:1" /><text x="536" y="280" font-size="8" style="fill:white">Phillip Island Circuit</text><rect x="460" y="320" width="200" height="40" style="fill:white;stroke:black;stroke-width:1" /><text x="470" y="330" font-size="10" style="fill:blue">referencia</text><path d="M440 240 C460 240 440 340 460 340" style="fill:transparent;stroke:black" /><rect x="526" y="320" width="137" height="40" style="fill:green;stroke:black;stroke-width:1" /><text x="536" y="330" font-size="8" style="fill:white">Gran Premio de Australia de MotoGP</text><rect x="240" y="420" width="200" height="40" style="fill:white;stroke:black;stroke-width:1" /><text x="250" y="430" font-size="10" style="fill:blue">g_fotos</text><path d="M220 40 C240 40 220 440 240 440" style="fill:transparent;stroke:black" /><rect x="460" y="420" width="200" height="40" style="fill:white;stroke:black;stroke-width:1" /><text x="470" y="430" font-size="10" style="fill:blue">foto</text><path d="M440 440 C460 440 440 440 460 440" style="fill:transparent;stroke:black" /><text x="470" y="440" font-size="8" style="fill:black">source: ../multimedia/phillip-island-circuit.jpg</text><text x="470" y="450" font-size="8" style="fill:black">alt: Vista aérea del circuito de Phillip Island</text><rect x="526" y="420" width="137" height="40" style="fill:green;stroke:black;stroke-width:1" /><text x="536" y="430" font-size="8" style="fill:white">Vista aérea del circuito</text><rect x="460" y="470" width="200" height="40" style="fill:white;stroke:black;stroke-width:1" /><text x="470" y="480" font-size="10" style="fill:blue">foto</text><path d="M440 440 C460 440 440 490 460 490" style="fill:transparent;stroke:black" /><text x="470" y="490" font-size="8" style="fill:black">source: ../multimedia/phillip-island-turn1.jpg</text><text x="470" y="500" font-size="8" style="fill:black">alt: Curva 1 del circuito de Phillip Island</text><rect x="526" y="470" width="137" height="40" style="fill:green;stroke:black;stroke-width:1" /><text x="536" y="480" font-size="8" style="fill:white">Curva 1 - Gardner Straight</text><rect x="460" y="520" width="200" height="40" style="fill:white;stroke:black;stroke-width:1" /><text x="470" y="530" font-size="10" style="fill:blue">foto</text><path d="M440 440 C460 440 440 540 460 540" style="fill:transparent;stroke:black" /><text x="470" y="540" font-size="8" style="fill:black">source: ../multimedia/phillip-island-main.jpg</text><text x="470" y="550" font-size="8" style="fill:black">alt: Recta principal del circuito de Phillip Island</text><rect x="526" y="520" width="137" height="40" style="fill:green;stroke:black;stroke-width:1" /><text x="536" y="530" font-size="8" style="fill:white">Recta principal</text><rect x="240" y="620" width="200" height="40" style="fill:white;stroke:black;stroke-width:1" /><text x="250" y="630" font-size="10" style="fill:blue">g_videos</text><path d="M220 40 C240 40 220 640 240 640" style="fill:transparent;stroke:black" /><rect x="460" y="620" width="200" height="40" style="fill:white;stroke:black;stroke-width:1" /><text x="470" y="630" font-size="10" style="fill:blue">video</text><path d="M440 640 C460 640 440 640 460 640" style="fill:transparent;stroke:black" /><text x="470" y="640" font-size="8" style="fill:black">source: ../multimedia/phillip-island-lap.mp4</text><text x="470" y="650" font-size="8" style="fill:black">type: video/mp4</text><rect x="526" y="620" width="137" height="40" style="fill:green;stroke:black;stroke-width:1" /><text x="536" y="630" font-size="8" style="fill:white">Vuelta onboard al circuito</text><rect x="460" y="670" width="200" height="40" style="fill:white;stroke:black;stroke-width:1" /><text x="470" y="680" font-size="10" style="fill:blue">video</text><path d="M440 640 C460 640 440 690 460 690" style="fill:transparent;stroke:black" /><text x="470" y="690" font-size="8" style="fill:black">source: ../multimedia/phillip-island-lap.webm</text><text x="470" y="700" font-size="8" style="fill:black">type: video/webm</text><rect x="526" y="670" width="137" height="40" style="fill:green;stroke:black;stroke-width:1" /><text x="536" y="680" font-size="8" style="fill:white">Highlights del circuito</text><rect x="240" y="770" width="200" height="40" style="fill:white;stroke:black;stroke-width:1" /><text x="250" y="780" font-size="10" style="fill:blue">punto_origen</text><path d="M220 40 C240 40 220 790 240 790" style="fill:transparent;stroke:black" /><rect x="460" y="770" width="200" height="40" style="fill:white;stroke:black;stroke-width:1" /><text x="470" y="780" font-size="10" style="fill:blue">longitud_origen</text><path d="M440 790 C460 790 440 790 460 790" style="fill:transparent;stroke:black" /><rect x="526" y="770" width="137" height="40" style="fill:green;stroke:black;stroke-width:1" /><text x="536" y="780" font-size="8" style="fill:white">145.2369</text><rect x="460" y="820" width="200" height="40" style="fill:white;stroke:black;stroke-width:1" /><text x="470" y="830" font-size="10" style="fill:blue">latitud_origen</text><path d="M440 790 C460 790 440 840 460 840" style="fill:transparent;stroke:black" /><rect x="526" y="820" width="137" height="40" style="fill:green;stroke:black;stroke-width:1" /><text x="536" y="830" font-size="8" style="fill:white">-38.5047</text><rect x="460" y="870" width="200" height="40" style="fill:white;stroke:black;stroke-width:1" /><text x="470" y="880" font-size="10" style="fill:blue">altitud_origen</text><path d="M440 790 C460 790 440 890 460 890" style="fill:transparent;stroke:black" /><rect x="526" y="870" width="137" height="40" style="fill:green;stroke:black;stroke-width:1" /><text x="536" y="880" font-size="8" style="fill:white">15</text><rect x="240" y="970" width="200" height="40" style="fill:white;stroke:black;stroke-width:1" /><text x="250" y="980" font-size="10" style="fill:blue">puntos_circuito</text><path d="M220 40 C240 40 220 990 240 990" style="fill:transparent;stroke:black" /><rect x="460" y="970" width="200" height="40" style="fill:white;stroke:black;stroke-width:1" /><text x="470" y="980" font-size="10" style="fill:blue">punto</text><path d="M440 990 C460 990 440 990 460 990" style="fill:transparent;stroke:black" /><text x="470" y="990" font-size="8" style="fill:black">distancia: 0</text><text x="470" y="1000" font-size="8" style="fill:black">sector: 1</text><rect x="680" y="970" width="200" height="40" style="fill:white;stroke:black;stroke-width:1" /><text x="690" y="980" font-size="10" style="fill:blue">longitud_punto</text><path d="M660 990 C680 990 660 990 680 990" style="fill:transparent;stroke:black" /><rect x="746" y="970" width="137" height="40" style="fill:green;stroke:black;stroke-width:1" /><text x="756" y="980" font-size="8" style="fill:white">145.2369</text><rect x="680" y="1020" width="200" height="40" style="fill:white;stroke:black;stroke-width:1" /><text x="690" y="1030" font-size="10" style="fill:blue">latitud_punto</text><path d="M660 990 C680 990 660 1040 680 1040" style="fill:transparent;stroke:black" /><rect x="746" y="1020" width="137" height="40" style="fill:green;stroke:black;stroke-width:1" /><text x="756" y="1030" font-size="8" style="fill:white">-38.5047</text><rect x="680" y="1070" width="200" height="40" style="fill:white;stroke:black;stroke-width:1" /><text x="690" y="1080" font-size="10" style="fill:blue">altitud_punto</text><path d="M660 990 C680 990 660 1090 680 1090" style="fill:transparent;stroke:black" /><rect x="746" y="1070" width="137" height="40" style="fill:green;stroke:black;stroke-width:1" /><text x="756" y="1080" font-size="8" style="fill:white">15</text><rect x="460" y="1170" width="200" height="40" style="fill:white;stroke:black;stroke-width:1" /><text x="470" y="1180" font-size="10" style="fill:blue">punto</text><path d="M440 990 C460 990 440 1190 460 1190" style="fill:transparent;stroke:black" /><text x="470" y="1190" font-size="8" style="fill:black">distancia: 0.2</text><text x="470" y="1200" font-size="8" style="fill:black">sector: 1</text><rect x="680" y="1170" width="200" height="40" style="fill:white;stroke:black;stroke-width:1" /><text x="690" y="1180" font-size="10" style="fill:blue">longitud_punto</text><path d="M660 1190 C680 1190 660 1190 680 1190" style="fill:transparent;stroke:black" /><rect x="746" y="1170" width="137" height="40" style="fill:green;stroke:black;stroke-width:1" /><text x="756" y="1180" font-size="8" style="fill:white">145.2372</text><rect x="680" y="1220" width="200" height="40" style="fill:white;stroke:black;stroke-width:1" /><text x="690" y="1230" font-size="10" style="fill:blue">latitud_punto</text><path d="M660 1190 C680 1190 660 1240 680 1240" style="fill:transparent;stroke:black" /><rect x="746" y="1220" width="137" height="40" style="fill:green;stroke:black;stroke-width:1" /><text x="756" y="1230" font-size="8" style="fill:white">-38.5038</text><rect x="680" y="1270" width="200" height="40" style="fill:white;stroke:black;stroke-width:1" /><text x="690" y="1280" font-size="10" style="fill:blue">altitud_punto</text><path d="M660 1190 C680 1190 660 1290 680 1290" style="fill:transparent;stroke:black" /><rect x="746" y="1270" width="137" height="40" style="fill:green;stroke:black;stroke-width:1" /><text x="756" y="1280" font-size="8" style="fill:white">16</text><rect x="460" y="1370" width="200" height="40" style="fill:white;stroke:black;stroke-width:1" /><text x="470" y="1380" font-size="10" style="fill:blue">punto</text><path d="M440 990 C460 990 440 1390 460 1390" style="fill:transparent;stroke:black" /><text x="470" y="1390" font-size="8" style="fill:black">distancia: 0.8</text><text x="470" y="1400" font-size="8" style="fill:black">sector: 1</text><rect x="680" y="1370" width="200" height="40" style="fill:white;stroke:black;stroke-width:1" /><text x="690" y="1380" font-size="10" style="fill:blue">longitud_punto</text><path d="M660 1390 C680 1390 660 1390 680 1390" style="fill:transparent;stroke:black" /><rect x="746" y="1370" width="137" height="40" style="fill:green;stroke:black;stroke-width:1" /><text x="756" y="1380" font-size="8" style="fill:white">145.2398</text><rect x="680" y="1420" width="200" height="40" style="fill:white;stroke:black;stroke-width:1" /><text x="690" y="1430" font-size="10" style="fill:blue">latitud_punto</text><path d="M660 1390 C680 1390 660 1440 680 1440" style="fill:transparent;stroke:black" /><rect x="746" y="1420" width="137" height="40" style="fill:green;stroke:black;stroke-width:1" /><text x="756" y="1430" font-size="8" style="fill:white">-38.5012</text><rect x="680" y="1470" width="200" height="40" style="fill:white;stroke:black;stroke-width:1" /><text x="690" y="1480" font-size="10" style="fill:blue">altitud_punto</text><path d="M660 1390 C680 1390 660 1490 680 1490" style="fill:transparent;stroke:black" /><rect x="746" y="1470" width="137" height="40" style="fill:green;stroke:black;stroke-width:1" /><text x="756" y="1480" font-size="8" style="fill:white">18</text><rect x="460" y="1570" width="200" height="40" style="fill:white;stroke:black;stroke-width:1" /><text x="470" y="1580" font-size="10" style="fill:blue">punto</text><path d="M440 990 C460 990 440 1590 460 1590" style="fill:transparent;stroke:black" /><text x="470" y="1590" font-size="8" style="fill:black">distancia: 1.2</text><text x="470" y="1600" font-size="8" style="fill:black">sector: 1</text><rect x="680" y="1570" width="200" height="40" style="fill:white;stroke:black;stroke-width:1" /><text x="690" y="1580" font-size="10" style="fill:blue">longitud_punto</text><path d="M660 1590 C680 1590 660 1590 680 1590" style="fill:transparent;stroke:black" /><rect x="746" y="1570" width="137" height="40" style="fill:green;stroke:black;stroke-width:1" /><text x="756" y="1580" font-size="8" style="fill:white">145.2412</text><rect x="680" y="1620" width="200" height="40" style="fill:white;stroke:black;stroke-width:1" /><text x="690" y="1630" font-size="10" style="fill:blue">latitud_punto</text><path d="M660 1590 C680 1590 660 1640 680 1640" style="fill:transparent;stroke:black" /><rect x="746" y="1620" width="137" height="40" style="fill:green;stroke:black;stroke-width:1" /><text x="756" y="1630" font-size="8" style="fill:white">-38.4998</text><rect x="680" y="1670" width="200" height="40" style="fill:white;stroke:black;stroke-width:1" /><text x="690" y="1680" font-size="10" style="fill:blue">altitud_punto</text><path d="M660 1590 C680 1590 660 1690 680 1690" style="fill:transparent;stroke:black" /><rect x="746" y="1670" width="137" height="40" style="fill:green;stroke:black;stroke-width:1" /><text x="756" y="1680" font-size="8" style="fill:white">20</text><rect x="460" y="1770" width="200" height="40" style="fill:white;stroke:black;stroke-width:1" /><text x="470" y="1780" font-size="10" style="fill:blue">punto</text><path d="M440 990 C460 990 440 1790 460 1790" style="fill:transparent;stroke:black" /><text x="470" y="1790" font-size="8" style="fill:black">distancia: 1.8</text><text x="470" y="1800" font-size="8" style="fill:black">sector: 1</text><rect x="680" y="1770" width="200" height="40" style="fill:white;stroke:black;stroke-width:1" /><text x="690" y="1780" font-size="10" style="fill:blue">longitud_punto</text><path d="M660 1790 C680 1790 660 1790 680 1790" style="fill:transparent;stroke:black" /><rect x="746" y="1770" width="137" height="40" style="fill:green;stroke:black;stroke-width:1" /><text x="756" y="1780" font-size="8" style="fill:white">145.2431</text><rect x="680" y="1820" width="200" height="40" style="fill:white;stroke:black;stroke-width:1" /><text x="690" y="1830" font-size="10" style="fill:blue">latitud_punto</text><path d="M660 1790 C680 1790 660 1840 680 1840" style="fill:transparent;stroke:black" /><rect x="746" y="1820" width="137" height="40" style="fill:green;stroke:black;stroke-width:1" /><text x="756" y="1830" font-size="8" style="fill:white">-38.4989</text><rect x="680" y="1870" width="200" height="40" style="fill:white;stroke:black;stroke-width:1" /><text x="690" y="1880" font-size="10" style="fill:blue">altitud_punto</text><path d="M660 1790 C680 1790 660 1890 680 1890" style="fill:transparent;stroke:black" /><rect x="746" y="1870" width="137" height="40" style="fill:green;stroke:black;stroke-width:1" /><text x="756" y="1880" font-size="8" style="fill:white">22</text><rect x="460" y="1970" width="200" height="40" style="fill:white;stroke:black;stroke-width:1" /><text x="470" y="1980" font-size="10" style="fill:blue">punto</text><path d="M440 990 C460 990 440 1990 460 1990" style="fill:transparent;stroke:black" /><text x="470" y="1990" font-size="8" style="fill:black">distancia: 2.4</text><text x="470" y="2000" font-size="8" style="fill:black">sector: 2</text><rect x="680" y="1970" width="200" height="40" style="fill:white;stroke:black;stroke-width:1" /><text x="690" y="1980" font-size="10" style="fill:blue">longitud_punto</text><path d="M660 1990 C680 1990 660 1990 680 1990" style="fill:transparent;stroke:black" /><rect x="746" y="1970" width="137" height="40" style="fill:green;stroke:black;stroke-width:1" /><text x="756" y="1980" font-size="8" style="fill:white">145.2458</text><rect x="680" y="2020" width="200" height="40" style="fill:white;stroke:black;stroke-width:1" /><text x="690" y="2030" font-size="10" style="fill:blue">latitud_punto</text><path d="M660 1990 C680 1990 660 2040 680 2040" style="fill:transparent;stroke:black" /><rect x="746" y="2020" width="137" height="40" style="fill:green;stroke:black;stroke-width:1" /><text x="756" y="2030" font-size="8" style="fill:white">-38.4976</text><rect x="680" y="2070" width="200" height="40" style="fill:white;stroke:black;stroke-width:1" /><text x="690" y="2080" font-size="10" style="fill:blue">altitud_punto</text><path d="M660 1990 C680 1990 660 2090 680 2090" style="fill:transparent;stroke:black" /><rect x="746" y="2070" width="137" height="40" style="fill:green;stroke:black;stroke-width:1" /><text x="756" y="2080" font-size="8" style="fill:white">25</text><rect x="460" y="2170" width="200" height="40" style="fill:white;stroke:black;stroke-width:1" /><text x="470" y="2180" font-size="10" style="fill:blue">punto</text><path d="M440 990 C460 990 440 2190 460 2190" style="fill:transparent;stroke:black" /><text x="470" y="2190" font-size="8" style="fill:black">distancia: 3.0</text><text x="470" y="2200" font-size="8" style="fill:black">sector: 2</text><rect x="680" y="2170" width="200" height="40" style="fill:white;stroke:black;stroke-width:1" /><text x="690" y="2180" font-size="10" style="fill:blue">longitud_punto</text><path d="M660 2190 C680 2190 660 2190 680 2190" style="fill:transparent;stroke:black" /><rect x="746" y="2170" width="137" height="40" style="fill:green;stroke:black;stroke-width:1" /><text x="756" y="2180" font-size="8" style="fill:white">145.2482</text><rect x="680" y="2220" width="200" height="40" style="fill:white;stroke:black;stroke-width:1" /><text x="690" y="2230" font-size="10" style="fill:blue">latitud_punto</text><path d="M660 2190 C680 2190 660 2240 680 2240" style="fill:transparent;stroke:black" /><rect x="746" y="2220" width="137" height="40" style="fill:green;stroke:black;stroke-width:1" /><text x="756" y="2230" font-size="8" style="fill:white">-38.4967</text><rect x="680" y="2270" width="200" height="40" style="fill:white;stroke:black;stroke-width:1" /><text x="690" y="2280" font-size="10" style="fill:blue">altitud_punto</text><path d="M660 2190 C680 2190 660 2290 680 2290" style="fill:transparent;stroke:black" /><rect x="746" y="2270" width="137" height="40" style="fill:green;stroke:black;stroke-width:1" /><text x="756" y="2280" font-size="8" style="fill:white">28</text><rect x="460" y="2370" width="200" height="40" style="fill:white;stroke:black;stroke-width:1" /><text x="470" y="2380" font-size="10" style="fill:blue">punto</text><path d="M440 990 C460 990 440 2390 460 2390" style="fill:transparent;stroke:black" /><text x="470" y="2390" font-size="8" style="fill:black">distancia: 3.6</text><text x="470" y="2400" font-size="8" style="fill:black">sector: 2</text><rect x="680" y="2370" width="200" height="40" style="fill:white;stroke:black;stroke-width:1" /><text x="690" y="2380" font-size="10" style="fill:blue">longitud_punto</text><path d="M660 2390 C680 2390 660 2390 680 2390" style="fill:transparent;stroke:black" /><rect x="746" y="2370" width="137" height="40" style="fill:green;stroke:black;stroke-width:1" /><text x="756" y="2380" font-size="8" style="fill:white">145.2501</text><rect x="680" y="2420" width="200" height="40" style="fill:white;stroke:black;stroke-width:1" /><text x="690" y="2430" font-size="10" style="fill:blue">latitud_punto</text><path d="M660 2390 C680 2390 660 2440 680 2440" style="fill:transparent;stroke:black" /><rect x="746" y="2420" width="137" height="40" style="fill:green;stroke:black;stroke-width:1" /><text x="756" y="2430" font-size="8" style="fill:white">-38.4958</text><rect x="680" y="2470" width="200" height="40" style="fill:white;stroke:black;stroke-width:1" /><text x="690" y="2480" font-size="10" style="fill:blue">altitud_punto</text><path d="M660 2390 C680 2390 660 2490 680 2490" style="fill:transparent;stroke:black" /><rect x="746" y="2470" width="137" height="40" style="fill:green;stroke:black;stroke-width:1" /><text x="756" y="2480" font-size="8" style="fill:white">30</text><rect x="460" y="2570" width="200" height="40" style="fill:white;stroke:black;stroke-width:1" /><text x="470" y="2580" font-size="10" style="fill:blue">punto</text><path d="M440 990 C460 990 440 2590 460 2590" style="fill:transparent;stroke:black" /><text x="470" y="2590" font-size="8" style="fill:black">distancia: 4.0</text><text x="470" y="2600" font-size="8" style="fill:black">sector: 3</text><rect x="680" y="2570" width="200" height="40" style="fill:white;stroke:black;stroke-width:1" /><text x="690" y="2580" font-size="10" style="fill:blue">longitud_punto</text><path d="M660 2590 C680 2590 660 2590 680 2590" style="fill:transparent;stroke:black" /><rect x="746" y="2570" width="137" height="40" style="fill:green;stroke:black;stroke-width:1" /><text x="756" y="2580" font-size="8" style="fill:white">145.2523</text><rect x="680" y="2620" width="200" height="40" style="fill:white;stroke:black;stroke-width:1" /><text x="690" y="2630" font-size="10" style="fill:blue">latitud_punto</text><path d="M660 2590 C680 2590 660 2640 680 2640" style="fill:transparent;stroke:black" /><rect x="746" y="2620" width="137" height="40" style="fill:green;stroke:black;stroke-width:1" /><text x="756" y="2630" font-size="8" style="fill:white">-38.4949</text><rect x="680" y="2670" width="200" height="40" style="fill:white;stroke:black;stroke-width:1" /><text x="690" y="2680" font-size="10" style="fill:blue">altitud_punto</text><path d="M660 2590 C680 2590 660 2690 680 2690" style="fill:transparent;stroke:black" /><rect x="746" y="2670" width="137" height="40" style="fill:green;stroke:black;stroke-width:1" /><text x="756" y="2680" font-size="8" style="fill:white">32</text><rect x="460" y="2770" width="200" height="40" style="fill:white;stroke:black;stroke-width:1" /><text x="470" y="2780" font-size="10" style="fill:blue">punto</text><path d="M440 990 C460 990 440 2790 460 2790" style="fill:transparent;stroke:black" /><text x="470" y="2790" font-size="8" style="fill:black">distancia: 4.4</text><text x="470" y="2800" font-size="8" style="fill:black">sector: 3</text><rect x="680" y="2770" width="200" height="40" style="fill:white;stroke:black;stroke-width:1" /><text x="690" y="2780" font-size="10" style="fill:blue">longitud_punto</text><path d="M660 2790 C680 2790 660 2790 680 2790" style="fill:transparent;stroke:black" /><rect x="746" y="2770" width="137" height="40" style="fill:green;stroke:black;stroke-width:1" /><text x="756" y="2780" font-size="8" style="fill:white">145.2365</text><rect x="680" y="2820" width="200" height="40" style="fill:white;stroke:black;stroke-width:1" /><text x="690" y="2830" font-size="10" style="fill:blue">latitud_punto</text><path d="M660 2790 C680 2790 660 2840 680 2840" style="fill:transparent;stroke:black" /><rect x="746" y="2820" width="137" height="40" style="fill:green;stroke:black;stroke-width:1" /><text x="756" y="2830" font-size="8" style="fill:white">-38.5042</text><rect x="680" y="2870" width="200" height="40" style="fill:white;stroke:black;stroke-width:1" /><text x="690" y="2880" font-size="10" style="fill:blue">altitud_punto</text><path d="M660 2790 C680 2790 660 2890 680 2890" style="fill:transparent;stroke:black" /><rect x="746" y="2870" width="137" height="40" style="fill:green;stroke:black;stroke-width:1" /><text x="756" y="2880" font-size="8" style="fill:white">15</text><rect x="240" y="3020" width="200" height="40" style="fill:white;stroke:black;stroke-width:1" /><text x="250" y="3030" font-size="10" style="fill:blue">vencedor</text><path d="M220 40 C240 40 220 3040 240 3040" style="fill:transparent;stroke:black" /><text x="250" y="3040" font-size="8" style="fill:black">tiempo: 1:30.712</text><rect x="306" y="3020" width="137" height="40" style="fill:green;stroke:black;stroke-width:1" /><text x="316" y="3030" font-size="8" style="fill:white">Francesco Bagnaia</text><rect x="240" y="3070" width="200" height="40" style="fill:white;stroke:black;stroke-width:1" /><text x="250" y="3080" font-size="10" style="fill:blue">clasificados</text><path d="M220 40 C240 40 220 3090 240 3090" style="fill:transparent;stroke:black" /><rect x="460" y="3070" width="200" height="40" style="fill:white;stroke:black;stroke-width:1" /><text x="470" y="3080" font-size="10" style="fill:blue">piloto</text><path d="M440 3090 C460 3090 440 3090 460 3090" style="fill:transparent;stroke:black" /><text x="470" y="3090" font-size="8" style="fill:black">posicion: 1</text><text x="470" y="3100" font-size="8" style="fill:black">puntos: 25</text><rect x="526" y="3070" width="137" height="40" style="fill:green;stroke:black;stroke-width:1" /><text x="536" y="3080" font-size="8" style="fill:white">Francesco Bagnaia</text><rect x="460" y="3120" width="200" height="40" style="fill:white;stroke:black;stroke-width:1" /><text x="470" y="3130" font-size="10" style="fill:blue">piloto</text><path d="M440 3090 C460 3090 440 3140 460 3140" style="fill:transparent;stroke:black" /><text x="470" y="3140" font-size="8" style="fill:black">posicion: 2</text><text x="470" y="3150" font-size="8" style="fill:black">puntos: 20</text><rect x="526" y="3120" width="137" height="40" style="fill:green;stroke:black;stroke-width:1" /><text x="536" y="3130" font-size="8" style="fill:white">Jorge Martín</text><rect x="460" y="3170" width="200" height="40" style="fill:white;stroke:black;stroke-width:1" /><text x="470" y="3180" font-size="10" style="fill:blue">piloto</text><path d="M440 3090 C460 3090 440 3190 460 3190" style="fill:transparent;stroke:black" /><text x="470" y="3190" font-size="8" style="fill:black">posicion: 3</text><text x="470" y="3200" font-size="8" style="fill:black">puntos: 16</text><rect x="526" y="3170" width="137" height="40" style="fill:green;stroke:black;stroke-width:1" /><text x="536" y="3180" font-size="8" style="fill:white">Marc Márquez</text></svg>