<?xml version="1.0" encoding="utf-8"?><svg width="auto" height="5120" style="overflow:visible " version="1.1" xmlns="http://www.w3.org/2000/svg"><rect x="20" y="20" width="200" height="40" style="fill:white;stroke:black;stroke-width:1" /><text x="30" y="30" font-size="10" style="fill:blue">xs:schema</text><text x="30" y="40" font-size="8" style="fill:black">xmlns:xs: http://www.w3.org/2001/XMLSchema</text><text x="30" y="50" font-size="8" style="fill:black">targetNamespace: http://www.uniovi.es</text><text x="30" y="60" font-size="8" style="fill:black">xmlns: http://www.uniovi.es</text><text x="30" y="70" font-size="8" style="fill:black">elementFormDefault: qualified</text><rect x="240" y="20" width="200" height="40" style="fill:white;stroke:black;stroke-width:1" /><text x="250" y="30" font-size="10" style="fill:blue">xs:element</text><path d="M220 40 C240 40 220 40 240 40" style="fill:transparent;stroke:black" /><text x="250" y="40" font-size="8" style="fill:black">name: circuito</text><rect x="460" y="20" width="200" height="40" style="fill:white;stroke:black;stroke-width:1" /><text x="470" y="30" font-size="10" style="fill:blue">xs:complexType</text><path d="M440 40 C460 40 440 40 460 40" style="fill:transparent;stroke:black" /><rect x="680" y="20" width="200" height="40" style="fill:white;stroke:black;stroke-width:1" /><text x="690" y="30" font-size="10" style="fill:blue">xs:sequence</text><path d="M660 40 C680 40 660 40 680 40" style="fill:transparent;stroke:black" /><rect x="900" y="20" width="200" height="40" style="fill:white;stroke:black;stroke-width:1" /><text x="910" y="30" font-size="10" style="fill:blue">xs:element</text><path d="M880 40 C900 40 880 40 900 40" style="fill:transparent;stroke:black" /><text x="910" y="40" font-size="8" style="fill:black">ref: longitud</text><rect x="900" y="70" width="200" height="40" style="fill:white;stroke:black;stroke-width:1" /><text x="910" y="80" font-size="10" style="fill:blue">xs:element</text><path d="M880 40 C900 40 880 90 900 90" style="fill:transparent;stroke:black" /><text x="910" y="90" font-size="8" style="fill:black">ref: anchura</text><rect x="900" y="120" width="200" height="40" style="fill:white;stroke:black;stroke-width:1" /><text x="910" y="130" font-size="10" style="fill:blue">xs:element</text><path d="M880 40 C900 40 880 140 900 140" style="fill:transparent;stroke:black" /><text x="910" y="140" font-size="8" style="fill:black">ref: localizacion</text><rect x="900" y="170" width="200" height="40" style="fill:white;stroke:black;stroke-width:1" /><text x="910" y="180" font-size="10" style="fill:blue">xs:element</text><path d="M880 40 C900 40 880 190 900 190" style="fill:transparent;stroke:black" /><text x="910" y="190" font-size="8" style="fill:black">ref: referencias</text><rect x="900" y="220" width="200" height="40" style="fill:white;stroke:black;stroke-width:1" /><text x="910" y="230" font-size="10" style="fill:blue">xs:element</text><path d="M880 40 C900 40 880 240 900 240" style="fill:transparent;stroke:black" /><text x="910" y="240" font-size="8" style="fill:black">ref: g_fotos</text><rect x="900" y="270" width="200" height="40" style="fill:white;stroke:black;stroke-width:1" /><text x="910" y="280" font-size="10" style="fill:blue">xs:element</text><path d="M880 40 C900 40 880 290 900 290" style="fill:transparent;stroke:black" /><text x="910" y="290" font-size="8" style="fill:black">ref: g_videos</text><rect x="900" y="320" width="200" height="40" style="fill:white;stroke:black;stroke-width:1" /><text x="910" y="330" font-size="10" style="fill:blue">xs:element</text><path d="M880 40 C900 40 880 340 900 340" style="fill:transparent;stroke:black" /><text x="910" y="340" font-size="8" style="fill:black">ref: punto_origen</text><rect x="900" y="370" width="200" height="40" style="fill:white;stroke:black;stroke-width:1" /><text x="910" y="380" font-size="10" style="fill:blue">xs:element</text><path d="M880 40 C900 40 880 390 900 390" style="fill:transparent;stroke:black" /><text x="910" y="390" font-size="8" style="fill:black">ref: puntos_circuito</text><rect x="900" y="420" width="200" height="40" style="fill:white;stroke:black;stroke-width:1" /><text x="910" y="430" font-size="10" style="fill:blue">xs:element</text><path d="M880 40 C900 40 880 440 900 440" style="fill:transparent;stroke:black" /><text x="910" y="440" font-size="8" style="fill:black">ref: vencedor</text><rect x="900" y="470" width="200" height="40" style="fill:white;stroke:black;stroke-width:1" /><text x="910" y="480" font-size="10" style="fill:blue">xs:element</text><path d="M880 40 C900 40 880 490 900 490" style="fill:transparent;stroke:black" /><text x="910" y="490" font-size="8" style="fill:black">ref: clasificados</text><rect x="680" y="570" width="200" height="40" style="fill:white;stroke:black;stroke-width:1" /><text x="690" y="580" font-size="10" style="fill:blue">xs:attribute</text><path d="M660 40 C680 40 660 590 680 590" style="fill:transparent;stroke:black" /><text x="690" y="590" font-size="8" style="fill:black">name: nombre</text><text x="690" y="600" font-size="8" style="fill:black">type: xs:string</text><text x="690" y="610" font-size="8" style="fill:black">use: required</text><rect x="680" y="620" width="200" height="40" style="fill:white;stroke:black;stroke-width:1" /><text x="690" y="630" font-size="10" style="fill:blue">xs:attribute</text><path d="M660 40 C680 40 660 640 680 640" style="fill:transparent;stroke:black" /><text x="690" y="640" font-size="8" style="fill:black">name: n_vueltas</text><text x="690" y="650" font-size="8" style="fill:black">type: xs:int</text><text x="690" y="660" font-size="8" style="fill:black">use: required</text><rect x="680" y="670" width="200" height="40" style="fill:white;stroke:black;stroke-width:1" /><text x="690" y="680" font-size="10" style="fill:blue">xs:attribute</text><path d="M660 40 C680 40 660 690 680 690" style="fill:transparent;stroke:black" /><text x="690" y="690" font-size="8" style="fill:black">name: patrocinador</text><text x="690" y="700" font-size="8" style="fill:black">type: xs:string</text><text x="690" y="710" font-size="8" style="fill:black">use: required</text><rect x="680" y="720" width="200" height="40" style="fill:white;stroke:black;stroke-width:1" /><text x="690" y="730" font-size="10" style="fill:blue">xs:attribute</text><path d="M660 40 C680 40 660 740 680 740" style="fill:transparent;stroke:black" /><text x="690" y="740" font-size="8" style="fill:black">name: fecha</text><text x="690" y="750" font-size="8" style="fill:black">type: xs:date</text><text x="690" y="760" font-size="8" style="fill:black">use: required</text><rect x="680" y="770" width="200" height="40" style="fill:white;stroke:black;stroke-width:1" /><text x="690" y="780" font-size="10" style="fill:blue">xs:attribute</text><path d="M660 40 C680 40 660 790 680 790" style="fill:transparent;stroke:black" /><text x="690" y="790" font-size="8" style="fill:black">name: hora</text><text x="690" y="800" font-size="8" style="fill:black">type: xs:time</text><text x="690" y="810" font-size="8" style="fill:black">use: required</text><rect x="240" y="920" width="200" height="40" style="fill:white;stroke:black;stroke-width:1" /><text x="250" y="930" font-size="10" style="fill:blue">xs:element</text><path d="M220 40 C240 40 220 940 240 940" style="fill:transparent;stroke:black" /><text x="250" y="940" font-size="8" style="fill:black">name: longitud</text><rect x="460" y="920" width="200" height="40" style="fill:white;stroke:black;stroke-width:1" /><text x="470" y="930" font-size="10" style="fill:blue">xs:complexType</text><path d="M440 940 C460 940 440 940 460 940" style="fill:transparent;stroke:black" /><rect x="680" y="920" width="200" height="40" style="fill:white;stroke:black;stroke-width:1" /><text x="690" y="930" font-size="10" style="fill:blue">xs:simpleContent</text><path d="M660 940 C680 940 660 940 680 940" style="fill:transparent;stroke:black" /><rect x="900" y="920" width="200" height="40" style="fill:white;stroke:black;stroke-width:1" /><text x="910" y="930" font-size="10" style="fill:blue">xs:extension</text><path d="M880 940 C900 940 880 940 900 940" style="fill:transparent;stroke:black" /><text x="910" y="940" font-size="8" style="fill:black">base: xs:double</text><rect x="1120" y="920" width="200" height="40" style="fill:white;stroke:black;stroke-width:1" /><text x="1130" y="930" font-size="10" style="fill:blue">xs:attribute</text><path d="M1100 940 C1120 940 1100 940 1120 940" style="fill:transparent;stroke:black" /><text x="1130" y="940" font-size="8" style="fill:black">name: unidad</text><text x="1130" y="950" font-size="8" style="fill:black">type: xs:string</text><text x="1130" y="960" font-size="8" style="fill:black">use: required</text><rect x="240" y="1170" width="200" height="40" style="fill:white;stroke:black;stroke-width:1" /><text x="250" y="1180" font-size="10" style="fill:blue">xs:element</text><path d="M220 40 C240 40 220 1190 240 1190" style="fill:transparent;stroke:black" /><text x="250" y="1190" font-size="8" style="fill:black">name: anchura</text><rect x="460" y="1170" width="200" height="40" style="fill:white;stroke:black;stroke-width:1" /><text x="470" y="1180" font-size="10" style="fill:blue">xs:complexType</text><path d="M440 1190 C460 1190 440 1190 460 1190" style="fill:transparent;stroke:black" /><rect x="680" y="1170" width="200" height="40" style="fill:white;stroke:black;stroke-width:1" /><text x="690" y="1180" font-size="10" style="fill:blue">xs:simpleContent</text><path d="M660 1190 C680 1190 660 1190 680 1190" style="fill:transparent;stroke:black" /><rect x="900" y="1170" width="200" height="40" style="fill:white;stroke:black;stroke-width:1" /><text x="910" y="1180" font-size="10" style="fill:blue">xs:extension</text><path d="M880 1190 C900 1190 880 1190 900 1190" style="fill:transparent;stroke:black" /><text x="910" y="1190" font-size="8" style="fill:black">base: xs:double</text><rect x="1120" y="1170" width="200" height="40" style="fill:white;stroke:black;stroke-width:1" /><text x="1130" y="1180" font-size="10" style="fill:blue">xs:attribute</text><path d="M1100 1190 C1120 1190 1100 1190 1120 1190" style="fill:transparent;stroke:black" /><text x="1130" y="1190" font-size="8" style="fill:black">name: unidad</text><text x="1130" y="1200" font-size="8" style="fill:black">type: xs:string</text><text x="1130" y="1210" font-size="8" style="fill:black">use: required</text><rect x="240" y="1420" width="200" height="40" style="fill:white;stroke:black;stroke-width:1" /><text x="250" y="1430" font-size="10" style="fill:blue">xs:element</text><path d="M220 40 C240 40 220 1440 240 1440" style="fill:transparent;stroke:black" /><text x="250" y="1440" font-size="8" style="fill:black">name: localizacion</text><rect x="460" y="1420" width="200" height="40" style="fill:white;stroke:black;stroke-width:1" /><text x="470" y="1430" font-size="10" style="fill:blue">xs:complexType</text><path d="M440 1440 C460 1440 440 1440 460 1440" style="fill:transparent;stroke:black" /><rect x="680" y="1420" width="200" height="40" style="fill:white;stroke:black;stroke-width:1" /><text x="690" y="1430" font-size="10" style="fill:blue">xs:sequence</text><path d="M660 1440 C680 1440 660 1440 680 1440" style="fill:transparent;stroke:black" /><rect x="900" y="1420" width="200" height="40" style="fill:white;stroke:black;stroke-width:1" /><text x="910" y="1430" font-size="10" style="fill:blue">xs:element</text><path d="M880 1440 C900 1440 880 1440 900 1440" style="fill:transparent;stroke:black" /><text x="910" y="1440" font-size="8" style="fill:black">ref: localidad_proxima</text><rect x="240" y="1620" width="200" height="40" style="fill:white;stroke:black;stroke-width:1" /><text x="250" y="1630" font-size="10" style="fill:blue">xs:element</text><path d="M220 40 C240 40 220 1640 240 1640" style="fill:transparent;stroke:black" /><text x="250" y="1640" font-size="8" style="fill:black">name: localidad_proxima</text><rect x="460" y="1620" width="200" height="40" style="fill:white;stroke:black;stroke-width:1" /><text x="470" y="1630" font-size="10" style="fill:blue">xs:complexType</text><path d="M440 1640 C460 1640 440 1640 460 1640" style="fill:transparent;stroke:black" /><rect x="680" y="1620" width="200" height="40" style="fill:white;stroke:black;stroke-width:1" /><text x="690" y="1630" font-size="10" style="fill:blue">xs:simpleContent</text><path d="M660 1640 C680 1640 660 1640 680 1640" style="fill:transparent;stroke:black" /><rect x="900" y="1620" width="200" height="40" style="fill:white;stroke:black;stroke-width:1" /><text x="910" y="1630" font-size="10" style="fill:blue">xs:extension</text><path d="M880 1640 C900 1640 880 1640 900 1640" style="fill:transparent;stroke:black" /><text x="910" y="1640" font-size="8" style="fill:black">base: xs:string</text><rect x="1120" y="1620" width="200" height="40" style="fill:white;stroke:black;stroke-width:1" /><text x="1130" y="1630" font-size="10" style="fill:blue">xs:attribute</text><path d="M1100 1640 C1120 1640 1100 1640 1120 1640" style="fill:transparent;stroke:black" /><text x="1130" y="1640" font-size="8" style="fill:black">name: pais</text><text x="1130" y="1650" font-size="8" style="fill:black">type: xs:string</text><text x="1130" y="1660" font-size="8" style="fill:black">use: required</text><rect x="240" y="1870" width="200" height="40" style="fill:white;stroke:black;stroke-width:1" /><text x="250" y="1880" font-size="10" style="fill:blue">xs:element</text><path d="M220 40 C240 40 220 1890 240 1890" style="fill:transparent;stroke:black" /><text x="250" y="1890" font-size="8" style="fill:black">name: referencias</text><rect x="460" y="1870" width="200" height="40" style="fill:white;stroke:black;stroke-width:1" /><text x="470" y="1880" font-size="10" style="fill:blue">xs:complexType</text><path d="M440 1890 C460 1890 440 1890 460 1890" style="fill:transparent;stroke:black" /><rect x="680" y="1870" width="200" height="40" style="fill:white;stroke:black;stroke-width:1" /><text x="690" y="1880" font-size="10" style="fill:blue">xs:sequence</text><path d="M660 1890 C680 1890 660 1890 680 1890" style="fill:transparent;stroke:black" /><rect x="900" y="1870" width="200" height="40" style="fill:white;stroke:black;stroke-width:1" /><text x="910" y="1880" font-size="10" style="fill:blue">xs:element</text><path d="M880 1890 C900 1890 880 1890 900 1890" style="fill:transparent;stroke:black" /><text x="910" y="1890" font-size="8" style="fill:black">minOccurs: 3</text><text x="910" y="1900" font-size="8" style="fill:black">maxOccurs: unbounded</text><text x="910" y="1910" font-size="8" style="fill:black">ref: referencia</text><rect x="240" y="2070" width="200" height="40" style="fill:white;stroke:black;stroke-width:1" /><text x="250" y="2080" font-size="10" style="fill:blue">xs:element</text><path d="M220 40 C240 40 220 2090 240 2090" style="fill:transparent;stroke:black" /><text x="250" y="2090" font-size="8" style="fill:black">name: referencia</text><text x="250" y="2100" font-size="8" style="fill:black">type: xs:string</text><rect x="240" y="2120" width="200" height="40" style="fill:white;stroke:black;stroke-width:1" /><text x="250" y="2130" font-size="10" style="fill:blue">xs:element</text><path d="M220 40 C240 40 220 2140 240 2140" style="fill:transparent;stroke:black" /><text x="250" y="2140" font-size="8" style="fill:black">name: g_fotos</text><rect x="460" y="2120" width="200" height="40" style="fill:white;stroke:black;stroke-width:1" /><text x="470" y="2130" font-size="10" style="fill:blue">xs:complexType</text><path d="M440 2140 C460 2140 440 2140 460 2140" style="fill:transparent;stroke:black" /><rect x="680" y="2120" width="200" height="40" style="fill:white;stroke:black;stroke-width:1" /><text x="690" y="2130" font-size="10" style="fill:blue">xs:sequence</text><path d="M660 2140 C680 2140 660 2140 680 2140" style="fill:transparent;stroke:black" /><rect x="900" y="2120" width="200" height="40" style="fill:white;stroke:black;stroke-width:1" /><text x="910" y="2130" font-size="10" style="fill:blue">xs:element</text><path d="M880 2140 C900 2140 880 2140 900 2140" style="fill:transparent;stroke:black" /><text x="910" y="2140" font-size="8" style="fill:black">minOccurs: 1</text><text x="910" y="2150" font-size="8" style="fill:black">maxOccurs: 5</text><text x="910" y="2160" font-size="8" style="fill:black">ref: foto</text><rect x="240" y="2320" width="200" height="40" style="fill:white;stroke:black;stroke-width:1" /><text x="250" y="2330" font-size="10" style="fill:blue">xs:element</text><path d="M220 40 C240 40 220 2340 240 2340" style="fill:transparent;stroke:black" /><text x="250" y="2340" font-size="8" style="fill:black">name: foto</text><rect x="460" y="2320" width="200" height="40" style="fill:white;stroke:black;stroke-width:1" /><text x="470" y="2330" font-size="10" style="fill:blue">xs:complexType</text><path d="M440 2340 C460 2340 440 2340 460 2340" style="fill:transparent;stroke:black" /><rect x="680" y="2320" width="200" height="40" style="fill:white;stroke:black;stroke-width:1" /><text x="690" y="2330" font-size="10" style="fill:blue">xs:simpleContent</text><path d="M660 2340 C680 2340 660 2340 680 2340" style="fill:transparent;stroke:black" /><rect x="900" y="2320" width="200" height="40" style="fill:white;stroke:black;stroke-width:1" /><text x="910" y="2330" font-size="10" style="fill:blue">xs:extension</text><path d="M880 2340 C900 2340 880 2340 900 2340" style="fill:transparent;stroke:black" /><text x="910" y="2340" font-size="8" style="fill:black">base: xs:string</text><rect x="1120" y="2320" width="200" height="40" style="fill:white;stroke:black;stroke-width:1" /><text x="1130" y="2330" font-size="10" style="fill:blue">xs:attribute</text><path d="M1100 2340 C1120 2340 1100 2340 1120 2340" style="fill:transparent;stroke:black" /><text x="1130" y="2340" font-size="8" style="fill:black">name: source</text><text x="1130" y="2350" font-size="8" style="fill:black">type: xs:string</text><text x="1130" y="2360" font-size="8" style="fill:black">use: required</text><rect x="1120" y="2370" width="200" height="40" style="fill:white;stroke:black;stroke-width:1" /><text x="1130" y="2380" font-size="10" style="fill:blue">xs:attribute</text><path d="M1100 2340 C1120 2340 1100 2390 1120 2390" style="fill:transparent;stroke:black" /><text x="1130" y="2390" font-size="8" style="fill:black">name: alt</text><text x="1130" y="2400" font-size="8" style="fill:black">type: xs:string</text><text x="1130" y="2410" font-size="8" style="fill:black">use: required</text><rect x="240" y="2620" width="200" height="40" style="fill:white;stroke:black;stroke-width:1" /><text x="250" y="2630" font-size="10" style="fill:blue">xs:element</text><path d="M220 40 C240 40 220 2640 240 2640" style="fill:transparent;stroke:black" /><text x="250" y="2640" font-size="8" style="fill:black">name: g_videos</text><rect x="460" y="2620" width="200" height="40" style="fill:white;stroke:black;stroke-width:1" /><text x="470" y="2630" font-size="10" style="fill:blue">xs:complexType</text><path d="M440 2640 C460 2640 440 2640 460 2640" style="fill:transparent;stroke:black" /><rect x="680" y="2620" width="200" height="40" style="fill:white;stroke:black;stroke-width:1" /><text x="690" y="2630" font-size="10" style="fill:blue">xs:sequence</text><path d="M660 2640 C680 2640 660 2640 680 2640" style="fill:transparent;stroke:black" /><rect x="900" y="2620" width="200" height="40" style="fill:white;stroke:black;stroke-width:1" /><text x="910" y="2630" font-size="10" style="fill:blue">xs:element</text><path d="M880 2640 C900 2640 880 2640 900 2640" style="fill:transparent;stroke:black" /><text x="910" y="2640" font-size="8" style="fill:black">minOccurs: 1</text><text x="910" y="2650" font-size="8" style="fill:black">maxOccurs: 3</text><text x="910" y="2660" font-size="8" style="fill:black">ref: video</text><rect x="240" y="2820" width="200" height="40" style="fill:white;stroke:black;stroke-width:1" /><text x="250" y="2830" font-size="10" style="fill:blue">xs:element</text><path d="M220 40 C240 40 220 2840 240 2840" style="fill:transparent;stroke:black" /><text x="250" y="2840" font-size="8" style="fill:black">name: video</text><rect x="460" y="2820" width="200" height="40" style="fill:white;stroke:black;stroke-width:1" /><text x="470" y="2830" font-size="10" style="fill:blue">xs:complexType</text><path d="M440 2840 C460 2840 440 2840 460 2840" style="fill:transparent;stroke:black" /><rect x="680" y="2820" width="200" height="40" style="fill:white;stroke:black;stroke-width:1" /><text x="690" y="2830" font-size="10" style="fill:blue">xs:simpleContent</text><path d="M660 2840 C680 2840 660 2840 680 2840" style="fill:transparent;stroke:black" /><rect x="900" y="2820" width="200" height="40" style="fill:white;stroke:black;stroke-width:1" /><text x="910" y="2830" font-size="10" style="fill:blue">xs:extension</text><path d="M880 2840 C900 2840 880 2840 900 2840" style="fill:transparent;stroke:black" /><text x="910" y="2840" font-size="8" style="fill:black">base: xs:string</text><rect x="1120" y="2820" width="200" height="40" style="fill:white;stroke:black;stroke-width:1" /><text x="1130" y="2830" font-size="10" style="fill:blue">xs:attribute</text><path d="M1100 2840 C1120 2840 1100 2840 1120 2840" style="fill:transparent;stroke:black" /><text x="1130" y="2840" font-size="8" style="fill:black">name: source</text><text x="1130" y="2850" font-size="8" style="fill:black">type: xs:string</text><text x="1130" y="2860" font-size="8" style="fill:black">use: required</text><rect x="1120" y="2870" width="200" height="40" style="fill:white;stroke:black;stroke-width:1" /><text x="1130" y="2880" font-size="10" style="fill:blue">xs:attribute</text><path d="M1100 2840 C1120 2840 1100 2890 1120 2890" style="fill:transparent;stroke:black" /><text x="1130" y="2890" font-size="8" style="fill:black">name: type</text><text x="1130" y="2900" font-size="8" style="fill:black">type: xs:string</text><text x="1130" y="2910" font-size="8" style="fill:black">use: required</text><rect x="240" y="3120" width="200" height="40" style="fill:white;stroke:black;stroke-width:1" /><text x="250" y="3130" font-size="10" style="fill:blue">xs:element</text><path d="M220 40 C240 40 220 3140 240 3140" style="fill:transparent;stroke:black" /><text x="250" y="3140" font-size="8" style="fill:black">name: punto_origen</text><rect x="460" y="3120" width="200" height="40" style="fill:white;stroke:black;stroke-width:1" /><text x="470" y="3130" font-size="10" style="fill:blue">xs:complexType</text><path d="M440 3140 C460 3140 440 3140 460 3140" style="fill:transparent;stroke:black" /><rect x="680" y="3120" width="200" height="40" style="fill:white;stroke:black;stroke-width:1" /><text x="690" y="3130" font-size="10" style="fill:blue">xs:sequence</text><path d="M660 3140 C680 3140 660 3140 680 3140" style="fill:transparent;stroke:black" /><rect x="900" y="3120" width="200" height="40" style="fill:white;stroke:black;stroke-width:1" /><text x="910" y="3130" font-size="10" style="fill:blue">xs:element</text><path d="M880 3140 C900 3140 880 3140 900 3140" style="fill:transparent;stroke:black" /><text x="910" y="3140" font-size="8" style="fill:black">ref: longitud_origen</text><rect x="900" y="3170" width="200" height="40" style="fill:white;stroke:black;stroke-width:1" /><text x="910" y="3180" font-size="10" style="fill:blue">xs:element</text><path d="M880 3140 C900 3140 880 3190 900 3190" style="fill:transparent;stroke:black" /><text x="910" y="3190" font-size="8" style="fill:black">ref: latitud_origen</text><rect x="900" y="3220" width="200" height="40" style="fill:white;stroke:black;stroke-width:1" /><text x="910" y="3230" font-size="10" style="fill:blue">xs:element</text><path d="M880 3140 C900 3140 880 3240 900 3240" style="fill:transparent;stroke:black" /><text x="910" y="3240" font-size="8" style="fill:black">ref: altitud_origen</text><rect x="240" y="3420" width="200" height="40" style="fill:white;stroke:black;stroke-width:1" /><text x="250" y="3430" font-size="10" style="fill:blue">xs:element</text><path d="M220 40 C240 40 220 3440 240 3440" style="fill:transparent;stroke:black" /><text x="250" y="3440" font-size="8" style="fill:black">name: longitud_origen</text><text x="250" y="3450" font-size="8" style="fill:black">type: xs:float</text><rect x="240" y="3470" width="200" height="40" style="fill:white;stroke:black;stroke-width:1" /><text x="250" y="3480" font-size="10" style="fill:blue">xs:element</text><path d="M220 40 C240 40 220 3490 240 3490" style="fill:transparent;stroke:black" /><text x="250" y="3490" font-size="8" style="fill:black">name: latitud_origen</text><text x="250" y="3500" font-size="8" style="fill:black">type: xs:float</text><rect x="240" y="3520" width="200" height="40" style="fill:white;stroke:black;stroke-width:1" /><text x="250" y="3530" font-size="10" style="fill:blue">xs:element</text><path d="M220 40 C240 40 220 3540 240 3540" style="fill:transparent;stroke:black" /><text x="250" y="3540" font-size="8" style="fill:black">name: altitud_origen</text><text x="250" y="3550" font-size="8" style="fill:black">type: xs:float</text><rect x="240" y="3570" width="200" height="40" style="fill:white;stroke:black;stroke-width:1" /><text x="250" y="3580" font-size="10" style="fill:blue">xs:element</text><path d="M220 40 C240 40 220 3590 240 3590" style="fill:transparent;stroke:black" /><text x="250" y="3590" font-size="8" style="fill:black">name: puntos_circuito</text><rect x="460" y="3570" width="200" height="40" style="fill:white;stroke:black;stroke-width:1" /><text x="470" y="3580" font-size="10" style="fill:blue">xs:complexType</text><path d="M440 3590 C460 3590 440 3590 460 3590" style="fill:transparent;stroke:black" /><rect x="680" y="3570" width="200" height="40" style="fill:white;stroke:black;stroke-width:1" /><text x="690" y="3580" font-size="10" style="fill:blue">xs:sequence</text><path d="M660 3590 C680 3590 660 3590 680 3590" style="fill:transparent;stroke:black" /><rect x="900" y="3570" width="200" height="40" style="fill:white;stroke:black;stroke-width:1" /><text x="910" y="3580" font-size="10" style="fill:blue">xs:element</text><path d="M880 3590 C900 3590 880 3590 900 3590" style="fill:transparent;stroke:black" /><text x="910" y="3590" font-size="8" style="fill:black">minOccurs: 1</text><text x="910" y="3600" font-size="8" style="fill:black">maxOccurs: unbounded</text><text x="910" y="3610" font-size="8" style="fill:black">ref: punto</text><rect x="240" y="3770" width="200" height="40" style="fill:white;stroke:black;stroke-width:1" /><text x="250" y="3780" font-size="10" style="fill:blue">xs:element</text><path d="M220 40 C240 40 220 3790 240 3790" style="fill:transparent;stroke:black" /><text x="250" y="3790" font-size="8" style="fill:black">name: punto</text><rect x="460" y="3770" width="200" height="40" style="fill:white;stroke:black;stroke-width:1" /><text x="470" y="3780" font-size="10" style="fill:blue">xs:complexType</text><path d="M440 3790 C460 3790 440 3790 460 3790" style="fill:transparent;stroke:black" /><rect x="680" y="3770" width="200" height="40" style="fill:white;stroke:black;stroke-width:1" /><text x="690" y="3780" font-size="10" style="fill:blue">xs:sequence</text><path d="M660 3790 C680 3790 660 3790 680 3790" style="fill:transparent;stroke:black" /><rect x="900" y="3770" width="200" height="40" style="fill:white;stroke:black;stroke-width:1" /><text x="910" y="3780" font-size="10" style="fill:blue">xs:element</text><path d="M880 3790 C900 3790 880 3790 900 3790" style="fill:transparent;stroke:black" /><text x="910" y="3790" font-size="8" style="fill:black">ref: longitud_punto</text><rect x="900" y="3820" width="200" height="40" style="fill:white;stroke:black;stroke-width:1" /><text x="910" y="3830" font-size="10" style="fill:blue">xs:element</text><path d="M880 3790 C900 3790 880 3840 900 3840" style="fill:transparent;stroke:black" /><text x="910" y="3840" font-size="8" style="fill:black">ref: latitud_punto</text><rect x="900" y="3870" width="200" height="40" style="fill:white;stroke:black;stroke-width:1" /><text x="910" y="3880" font-size="10" style="fill:blue">xs:element</text><path d="M880 3790 C900 3790 880 3890 900 3890" style="fill:transparent;stroke:black" /><text x="910" y="3890" font-size="8" style="fill:black">ref: altitud_punto</text><rect x="680" y="3970" width="200" height="40" style="fill:white;stroke:black;stroke-width:1" /><text x="690" y="3980" font-size="10" style="fill:blue">xs:attribute</text><path d="M660 3790 C680 3790 660 3990 680 3990" style="fill:transparent;stroke:black" /><text x="690" y="3990" font-size="8" style="fill:black">name: distancia</text><text x="690" y="4000" font-size="8" style="fill:black">type: xs:double</text><text x="690" y="4010" font-size="8" style="fill:black">use: required</text><rect x="680" y="4020" width="200" height="40" style="fill:white;stroke:black;stroke-width:1" /><text x="690" y="4030" font-size="10" style="fill:blue">xs:attribute</text><path d="M660 3790 C680 3790 660 4040 680 4040" style="fill:transparent;stroke:black" /><text x="690" y="4040" font-size="8" style="fill:black">name: sector</text><text x="690" y="4050" font-size="8" style="fill:black">type: xs:int</text><text x="690" y="4060" font-size="8" style="fill:black">use: required</text><rect x="240" y="4170" width="200" height="40" style="fill:white;stroke:black;stroke-width:1" /><text x="250" y="4180" font-size="10" style="fill:blue">xs:element</text><path d="M220 40 C240 40 220 4190 240 4190" style="fill:transparent;stroke:black" /><text x="250" y="4190" font-size="8" style="fill:black">name: longitud_punto</text><text x="250" y="4200" font-size="8" style="fill:black">type: xs:float</text><rect x="240" y="4220" width="200" height="40" style="fill:white;stroke:black;stroke-width:1" /><text x="250" y="4230" font-size="10" style="fill:blue">xs:element</text><path d="M220 40 C240 40 220 4240 240 4240" style="fill:transparent;stroke:black" /><text x="250" y="4240" font-size="8" style="fill:black">name: latitud_punto</text><text x="250" y="4250" font-size="8" style="fill:black">type: xs:float</text><rect x="240" y="4270" width="200" height="40" style="fill:white;stroke:black;stroke-width:1" /><text x="250" y="4280" font-size="10" style="fill:blue">xs:element</text><path d="M220 40 C240 40 220 4290 240 4290" style="fill:transparent;stroke:black" /><text x="250" y="4290" font-size="8" style="fill:black">name: altitud_punto</text><text x="250" y="4300" font-size="8" style="fill:black">type: xs:float</text><rect x="240" y="4320" width="200" height="40" style="fill:white;stroke:black;stroke-width:1" /><text x="250" y="4330" font-size="10" style="fill:blue">xs:element</text><path d="M220 40 C240 40 220 4340 240 4340" style="fill:transparent;stroke:black" /><text x="250" y="4340" font-size="8" style="fill:black">name: vencedor</text><rect x="460" y="4320" width="200" height="40" style="fill:white;stroke:black;stroke-width:1" /><text x="470" y="4330" font-size="10" style="fill:blue">xs:complexType</text><path d="M440 4340 C460 4340 440 4340 460 4340" style="fill:transparent;stroke:black" /><rect x="680" y="4320" width="200" height="40" style="fill:white;stroke:black;stroke-width:1" /><text x="690" y="4330" font-size="10" style="fill:blue">xs:simpleContent</text><path d="M660 4340 C680 4340 660 4340 680 4340" style="fill:transparent;stroke:black" /><rect x="900" y="4320" width="200" height="40" style="fill:white;stroke:black;stroke-width:1" /><text x="910" y="4330" font-size="10" style="fill:blue">xs:extension</text><path d="M880 4340 C900 4340 880 4340 900 4340" style="fill:transparent;stroke:black" /><text x="910" y="4340" font-size="8" style="fill:black">base: xs:string</text><rect x="1120" y="4320" width="200" height="40" style="fill:white;stroke:black;stroke-width:1" /><text x="1130" y="4330" font-size="10" style="fill:blue">xs:attribute</text><path d="M1100 4340 C1120 4340 1100 4340 1120 4340" style="fill:transparent;stroke:black" /><text x="1130" y="4340" font-size="8" style="fill:black">name: tiempo</text><text x="1130" y="4350" font-size="8" style="fill:black">type: xs:duration</text><text x="1130" y="4360" font-size="8" style="fill:black">use: required</text><rect x="240" y="4570" width="200" height="40" style="fill:white;stroke:black;stroke-width:1" /><text x="250" y="4580" font-size="10" style="fill:blue">xs:element</text><path d="M220 40 C240 40 220 4590 240 4590" style="fill:transparent;stroke:black" /><text x="250" y="4590" font-size="8" style="fill:black">name: clasificados</text><rect x="460" y="4570" width="200" height="40" style="fill:white;stroke:black;stroke-width:1" /><text x="470" y="4580" font-size="10" style="fill:blue">xs:complexType</text><path d="M440 4590 C460 4590 440 4590 460 4590" style="fill:transparent;stroke:black" /><rect x="680" y="4570" width="200" height="40" style="fill:white;stroke:black;stroke-width:1" /><text x="690" y="4580" font-size="10" style="fill:blue">xs:sequence</text><path d="M660 4590 C680 4590 660 4590 680 4590" style="fill:transparent;stroke:black" /><rect x="900" y="4570" width="200" height="40" style="fill:white;stroke:black;stroke-width:1" /><text x="910" y="4580" font-size="10" style="fill:blue">xs:element</text><path d="M880 4590 C900 4590 880 4590 900 4590" style="fill:transparent;stroke:black" /><text x="910" y="4590" font-size="8" style="fill:black">minOccurs: 3</text><text x="910" y="4600" font-size="8" style="fill:black">maxOccurs: 3</text><text x="910" y="4610" font-size="8" style="fill:black">ref: piloto</text><rect x="240" y="4770" width="200" height="40" style="fill:white;stroke:black;stroke-width:1" /><text x="250" y="4780" font-size="10" style="fill:blue">xs:element</text><path d="M220 40 C240 40 220 4790 240 4790" style="fill:transparent;stroke:black" /><text x="250" y="4790" font-size="8" style="fill:black">name: piloto</text><rect x="460" y="4770" width="200" height="40" style="fill:white;stroke:black;stroke-width:1" /><text x="470" y="4780" font-size="10" style="fill:blue">xs:complexType</text><path d="M440 4790 C460 4790 440 4790 460 4790" style="fill:transparent;stroke:black" /><rect x="680" y="4770" width="200" height="40" style="fill:white;stroke:black;stroke-width:1" /><text x="690" y="4780" font-size="10" style="fill:blue">xs:simpleContent</text><path d="M660 4790 C680 4790 660 4790 680 4790" style="fill:transparent;stroke:black" /><rect x="900" y="4770" width="200" height="40" style="fill:white;stroke:black;stroke-width:1" /><text x="910" y="4780" font-size="10" style="fill:blue">xs:extension</text><path d="M880 4790 C900 4790 880 4790 900 4790" style="fill:transparent;stroke:black" /><text x="910" y="4790" font-size="8" style="fill:black">base: xs:string</text><rect x="1120" y="4770" width="200" height="40" style="fill:white;stroke:black;stroke-width:1" /><text x="1130" y="4780" font-size="10" style="fill:blue">xs:attribute</text><path d="M1100 4790 C1120 4790 1100 4790 1120 4790" style="fill:transparent;stroke:black" /><text x="1130" y="4790" font-size="8" style="fill:black">name: posicion</text><text x="1130" y="4800" font-size="8" style="fill:black">type: xs:int</text><text x="1130" y="4810" font-size="8" style="fill:black">use: required</text><rect x="1120" y="4820" width="200" height="40" style="fill:white;stroke:black;stroke-width:1" /><text x="1130" y="4830" font-size="10" style="fill:blue">xs:attribute</text><path d="M1100 4790 C1120 4790 1100 4840 1120 4840" style="fill:transparent;stroke:black" /><text x="1130" y="4840" font-size="8" style="fill:black">name: puntos</text><text x="1130" y="4850" font-size="8" style="fill:black">type: xs:int</text><text x="1130" y="4860" font-size="8" style="fill:black">use: required</text></svg>